<?xml version="1.0" encoding="UTF-8" standalone="no"?>
<!-- Created with Inkscape (http://www.inkscape.org/) -->

<svg
   version="1.1"
   id="svg1"
   width="810.94031"
   height="270.71564"
   viewBox="0 0 810.94031 270.71564"
   xmlns="http://www.w3.org/2000/svg"
   xmlns:svg="http://www.w3.org/2000/svg">
  <defs
     id="defs1" />
  <g
     id="g1"
     transform="translate(-106.52984,-376.64218)">
    <path
       style="fill:#ffffff"
       d="m 785.19724,646.68096 c -4.37026,-1.39746 -10.41715,-5.94093 -12.59359,-9.46249 -5.56127,-8.99833 -2.08921,-21.81652 6.92029,-25.54837 4.19809,-1.73891 7.21369,-0.69071 13.13013,4.56392 5.91163,5.25036 8.475,6.41965 14.0735,6.41965 5.51644,0 9.90672,-2.29908 15.20336,-7.96162 4.07699,-4.35863 9.37645,-13.32414 11.02782,-18.6566 0.45967,-1.48434 -3.56633,-12.25338 -13.45358,-35.98662 -7.76026,-18.62762 -17.94301,-43.32442 -22.62835,-54.88178 -16.31509,-40.24457 -17.50591,-42.85786 -21.09584,-46.29532 -1.88513,-1.80507 -5.40524,-3.8109 -7.82245,-4.4574 -4.29438,-1.14858 -4.39493,-1.26999 -4.39493,-5.30693 v -4.13146 l 29.25,-0.77677 c 16.0875,-0.42723 31.05,-0.83724 33.25,-0.91114 l 4,-0.13436 v 5 c 0,4.53222 -0.22703,5.03206 -2.42666,5.3427 -6.05766,0.85548 -9.93313,6.95558 -8.52003,13.41076 0.39088,1.7856 4.67048,12.92154 9.51023,24.74654 4.83974,11.825 11.922,29.27441 15.73835,38.77647 l 6.93882,17.27648 6.04035,-15.27648 c 13.68493,-34.6101 21.21894,-58.14656 21.21894,-66.28855 0,-6.14684 -3.35283,-10.60306 -9.43464,-12.53949 -4.86791,-1.54993 -4.87305,-1.55626 -4.87305,-6 v -4.44843 h 26.40384 26.40385 l 0.29774,4.57741 c 0.29372,4.51552 0.2464,4.59288 -3.5,5.72173 -10.01466,3.01759 -13.42268,8.66035 -27.29965,45.20086 -17.96612,47.30797 -38.35458,96.01791 -48.34468,115.5 -11.19711,21.83592 -24.80882,32.55574 -42.10802,33.16193 -4.42496,0.15506 -9.33525,-0.13053 -10.91175,-0.63464 z M 429.5636,590.29364 c -15.10974,-4.11337 -25.02483,-14.95198 -27.99235,-30.59962 -0.57362,-3.0247 -1.00765,-22.89346 -1.00765,-46.12762 0,-25.90276 -0.4018,-42.68783 -1.09977,-45.94235 -1.36333,-6.35699 -5.6991,-11.53023 -10.99297,-13.11631 -3.7633,-1.12752 -3.90726,-1.33061 -3.90726,-5.51236 v -4.34171 l 12.75,-0.008 c 11.50724,-0.007 22.06944,-0.80941 33.95989,-2.58043 l 4.20989,-0.62704 0.29011,55.35753 c 0.26602,50.76094 0.43938,55.68853 2.08784,59.34388 3.90477,8.65861 9.17599,11.91477 19.20227,11.86174 9.11907,-0.0482 16.81054,-3.0236 23.60291,-9.13052 9.07393,-8.15825 8.84996,-6.81694 8.87513,-53.15185 0.021,-38.73763 -0.064,-40.61189 -2.02715,-44.66716 -2.41382,-4.98629 -5.30291,-7.1114 -10.88049,-8.00329 -4.01653,-0.64186 -4.0704,-0.70646 -4.0704,-4.88102 v -4.23054 l 23.25,-0.63589 c 12.7875,-0.34974 24.7125,-0.91456 26.5,-1.25515 l 3.25,-0.61926 v 60.59326 c 0,53.42595 0.19088,61.07033 1.61374,64.6264 1.80439,4.50961 5.25471,7.40024 10.4228,8.73208 3.24474,0.83618 3.48232,1.17935 3.76213,5.43413 l 0.29868,4.54159 -16.29868,0.66881 c -8.96427,0.36784 -20.66845,0.94834 -26.00929,1.29001 l -9.71062,0.6212 -0.28938,-9.00363 -0.28938,-9.00364 -9,6.50617 c -4.95,3.57839 -11.7394,7.80013 -15.08756,9.38164 -11.18553,5.2835 -25.7093,7.12046 -35.41244,4.47895 z m 154,-0.0937 c -8.35717,-1.3738 -24.19715,-6.49272 -27.37496,-8.84661 -1.23902,-0.91777 -2.08817,-5.42952 -3.61357,-19.19969 -2.83991,-25.63669 -3.1384,-23.66091 3.52004,-23.2999 l 5.5315,0.2999 3.47039,7.99409 c 9.44164,21.74896 21.07936,30.3019 39.88762,29.31472 13.88827,-0.72895 23.37592,-7.64008 24.34585,-17.73439 0.60237,-6.26895 -1.14254,-11.3776 -5.55392,-16.26047 -4.82766,-5.34364 -9.3606,-7.81894 -25.99983,-14.19767 -21.28131,-8.15829 -28.89905,-12.94724 -36.56011,-22.98378 -7.52787,-9.86203 -8.76367,-26.87154 -2.82827,-38.92805 8.88813,-18.05436 29.15561,-27.71161 55.17526,-26.29046 10.19809,0.55701 31.40841,3.98432 33.79833,5.46137 0.76231,0.47114 1.53922,6.58301 2.18357,17.17799 1.46906,24.15576 1.8227,21.94665 -3.51328,21.94665 -3.43425,0 -4.66784,-0.42371 -5.09495,-1.75 -4.48764,-13.93524 -9.60783,-20.76305 -19.05962,-25.41616 -6.1581,-3.03162 -7.58978,-3.33384 -15.79302,-3.33384 -7.77939,0 -9.62821,0.3441 -13.43245,2.5 -5.84219,3.31084 -8.26779,6.80966 -8.8385,12.74917 -0.35437,3.68802 0.0484,5.91564 1.6304,9.01656 3.50216,6.8648 9.18031,10.29464 30.13535,18.20302 24.232,9.1451 34.06086,16.33738 40.70893,29.78884 3.6457,7.37658 3.77242,7.98895 3.7738,18.23767 0.001,10.24445 -0.12629,10.8633 -3.75774,18.21281 -6.38045,12.91309 -17.95237,21.58265 -34.59729,25.91995 -10.00954,2.60826 -27.05018,3.24188 -38.14353,1.41828 z m 128,0.55544 c -11.73288,-2.61613 -19.5929,-9.82537 -23.70831,-21.74537 -1.46145,-4.23297 -1.71685,-11.14641 -1.98956,-53.85637 -0.17208,-26.95 -0.55147,-50.04215 -0.84309,-51.3159 -0.6224,-2.71849 -5.75984,-5.18407 -10.80192,-5.18407 -1.87392,0 -4.81337,-0.28125 -6.53212,-0.625 -3.02069,-0.60414 -3.125,-0.7991 -3.125,-5.84087 v -5.21587 l 5.3853,-1.20518 c 15.63284,-3.49847 31.00918,-19.86554 34.66125,-36.89452 1.2124,-5.65322 1.6811,-5.91145 11.7565,-6.47701 l 4.30306,-0.24155 0.0298,21.25 0.0298,21.25 h 18.96288 18.96287 l -0.29569,6.75 -0.29569,6.75 -18.25,0.27256 -18.25,0.27256 -0.15929,7.72744 c -0.52755,25.59179 -0.41555,79.85425 0.1776,86.05099 0.77104,8.05519 2.43407,11.14735 8.07364,15.01176 2.93908,2.01395 4.37629,2.28797 10.44438,1.99135 5.89246,-0.28803 7.85749,-0.87088 12.08755,-3.5853 2.77809,-1.78275 5.57424,-3.24136 6.21359,-3.24136 0.74005,0 1.16245,1.96623 1.16245,5.41111 0,6.26083 -1.29814,7.73037 -12.83046,14.52441 -11.61382,6.84205 -26.06223,10.19691 -35.16954,8.16622 z M 146.23027,585.987 c -0.36667,-0.36666 -0.66667,-2.53448 -0.66667,-4.81737 v -4.15072 l 5.55331,-1.75052 c 3.65229,-1.15128 7.04047,-3.18215 9.89762,-5.93262 7.77806,-7.48763 7.54907,-4.76412 7.54907,-89.78401 v -74.7389 l -6.4059,-0.68602 c -10.72564,-1.14861 -25.58423,1.44158 -34.73041,6.05431 -6.56133,3.30911 -13.86369,12.22798 -13.86369,16.93268 0,1.09456 -1.01699,1.53984 -3.51688,1.53984 h -3.51688 l 0.26688,-25.75 0.26688,-25.75 83.25,-0.25574 83.25,-0.25575 v 26.00575 26.00574 h -2.33048 c -1.6368,0 -3.34157,-1.41386 -5.72734,-4.75 -4.80988,-6.7259 -10.65211,-12.90761 -14.37089,-15.20594 -7.44906,-4.60377 -20.5764,-5.95446 -25.17692,-2.59048 -1.56836,1.14682 -1.42583,2.02199 1.89626,11.64322 4.75531,13.77202 5.88138,21.57695 5.53918,38.39276 -0.27749,13.63557 -0.21091,14.15245 2.48842,19.31775 1.52545,2.91902 4.75561,8.20241 7.17813,11.74087 5.20526,7.60305 6.49055,11.6633 6.49806,20.52751 0.007,7.9419 -1.57748,9.8655 -10.13606,12.30748 -3.10291,0.88533 -5.90859,2.30534 -6.23485,3.15557 -0.32626,0.85022 -0.0556,3.55601 0.60154,6.01286 1.11612,4.17308 1.00719,4.81371 -1.65548,9.73601 -2.76329,5.1083 -2.80019,5.36574 -1.20989,8.44104 2.22374,4.30024 2.07956,5.51766 -0.98856,8.34704 -1.44588,1.33337 -3.25898,3.9037 -4.0291,5.71185 -1.22933,2.88628 -1.2006,3.70822 0.23534,6.73424 1.71488,3.61384 6.02614,6.84898 10.67264,8.00868 2.53166,0.63186 2.75,1.07472 2.75,5.57795 v 4.89159 h -46.33333 c -25.48334,0 -46.63334,-0.3 -47,-0.66667 z m 124.33333,-3.83333 c 0,-4.00918 0.24711,-4.5 2.2656,-4.5 4.04354,0 9.08721,-3.5266 11.45948,-8.01262 2.27283,-4.29799 2.27492,-4.34494 2.27492,-51.07956 0,-30.61921 -0.36741,-47.75004 -1.06362,-49.59272 -1.68093,-4.44896 -6.02412,-8.3084 -10.66478,-9.47693 -4.11034,-1.03499 -4.2716,-1.22212 -4.2716,-4.95688 v -3.88129 l 4.75,-0.0198 c 6.93763,-0.0289 17.07214,-1.64735 31.37882,-5.01101 18.74521,-4.40721 17.0322,-5.54065 16.67389,11.03244 -0.16649,7.70089 -0.23679,14.00089 -0.15622,14 0.0806,-8.9e-4 2.2211,-3.33017 4.75671,-7.3984 5.83034,-9.3544 13.88991,-17.58063 20.07107,-20.48612 5.3881,-2.53271 16.74255,-3.10439 20.75226,-1.04485 3.7815,1.94232 8.84383,7.22386 10.35164,10.79987 3.17342,7.52633 1.1967,19.55301 -4.08125,24.83096 -5.01975,5.01975 -9.49826,4.65037 -17.61765,-1.45308 -5.40106,-4.06005 -6.97692,-4.74603 -10.84908,-4.72264 -6.08228,0.0367 -11.29578,2.76931 -17.70097,9.27765 l -5.32922,5.41504 v 39.86974 c 0,34.35586 0.22318,40.4275 1.61374,43.90286 1.87142,4.67715 5.88837,7.89001 10.87676,8.69951 3.30984,0.53711 3.5095,0.78963 3.5095,4.43867 v 3.86916 h -34.5 -34.5 z"
       id="path1" />
  </g>
</svg>
